<svg id="레이어_1" data-name="레이어 1" xmlns="http://www.w3.org/2000/svg" xmlns:xlink="http://www.w3.org/1999/xlink" viewBox="0 0 133.4 34.43"><defs><style>.cls-1{fill:url(#linear-gradient);}.cls-2{fill:#00642f;}.cls-3{fill:#b8babb;}.cls-4{fill:#fff;}.cls-5{fill:#8c9091;}.cls-6{fill:#7b7c7b;}.cls-7{fill:#66645d;}.cls-8{fill:#aaaaa6;}.cls-9{fill:#f08300;}.cls-10{fill:#231815;}</style><linearGradient id="linear-gradient" x1="152.43" y1="161.42" x2="189.22" y2="161.42" gradientUnits="userSpaceOnUse"><stop offset="0" stop-color="#e8753a"/><stop offset="1" stop-color="#18a65f"/></linearGradient></defs><title>Central Library 1</title><path class="cls-1" d="M167.31,155.74a10.79,10.79,0,0,1,12.56,9.2c.82,6.58-7.17,9-12,7.59-13.85-4-3.4-25.66,8-15.21,8.12,7.46-1.31,21-11.12,16.88s-6.58-16.18.29-21c6.51-4.57,15.55-3.09,17.72,5.23,1.87,7.12-2.39,17.86-11.09,15.91-7.82-1.76-6.16-11.58-3.6-16.81,3.71-7.62,14-8.88,14.42,1.46.33,8.21-8.49,15.42-14.61,7.16-4-5.42,3.14-15.26,9.48-12.55,4.21,1.8,4.24,8.6,2.73,12s-5.3,5.42-8.65,6.53c-9.61,3.17-16.87-4.24-15.38-13.68,1.34-8.44,8.45-13.76,16.87-12,9.47,1.93,13.88,12.49,11.23,21-3.2,10.39-17.12,10.21-24.31,4.6-7.77-6.05-4.78-17.13,1.57-23,6.95-6.38,19.12-5,24.67,2.42,7.91,10.6-3.93,25.14-14.94,26.17-17.93,1.68-22.6-21.19-10.11-30.93.49-.37-.19-1.05-.66-.67-7.39,5.75-11.36,18.38-4.16,26,6.6,7,18,9.19,25.63,2.31,6.4-5.74,10-15.65,5.06-23.39-3.95-6.21-12.42-7.86-19.11-6.3-7.89,1.83-13.26,9.63-13.64,17.45-.32,6.63,4.93,11.56,10.7,13.69,17.22,6.32,28-14.45,15.36-26.61-17.29-16.63-36,16.7-18.88,23.35,7.76,3,18-.59,20.47-8.94,1.59-5.33-2.85-13.93-9.24-11-5.16,2.35-9.51,10-4.78,14.91,5.68,5.91,12.13,3,14.85-4,2-5.06-.33-15.43-7.8-13.4-7.15,2-10.61,11.22-9.73,17.95.82,6.24,9.26,10.15,14.17,5.58,5.6-5.23,6.5-15,1.64-21-5.21-6.39-16.22-2.31-20.37,3.17-4.71,6.19-3.62,17,4.89,19.56,7.52,2.26,16-4.55,14.18-12.79-1.91-8.59-11.44-12.48-17.55-5.39-5.8,6.72.66,15.44,8,16.66,7.8,1.31,14-8.16,8.73-14.44-3-3.64-7-5.54-11.74-4.72-.61.1-.34,1,.26.91Z" transform="translate(-152.43 -144.21)"/><path class="cls-2" d="M252.86,170a4.35,4.35,0,1,1-4.35-4.35,4.35,4.35,0,0,1,4.35,4.35" transform="translate(-152.43 -144.21)"/><path class="cls-3" d="M251.83,170a3.36,3.36,0,1,1-3.36-3.36,3.35,3.35,0,0,1,3.36,3.36" transform="translate(-152.43 -144.21)"/><polygon class="cls-4" points="93.05 27.88 93.1 27.95 92.97 28.04 93.19 28.07 93.26 28.15 93.03 28.12 92.95 28.39 92.89 28.31 92.95 28.11 92.9 28.1 92.79 28.18 92.74 28.12 93.05 27.88"/><path class="cls-4" d="M245.62,172.81a.17.17,0,0,1-.12-.06.24.24,0,0,1-.05-.13.22.22,0,0,1,.08-.15.19.19,0,0,1,.28,0,.21.21,0,0,1,.05.12.19.19,0,0,1-.08.15.21.21,0,0,1-.16.07m0-.08a.18.18,0,0,0,.09,0,.12.12,0,0,0,.06-.09.07.07,0,0,0,0-.08.08.08,0,0,0-.07,0,.19.19,0,0,0-.1.05.14.14,0,0,0-.05.09.08.08,0,0,0,0,.08.13.13,0,0,0,.08,0" transform="translate(-152.43 -144.21)"/><path class="cls-4" d="M246.1,172.79s0,0,0,0,0,0,0,0l0,0s0,0-.05,0H246a.09.09,0,0,1,0,0l0,.05v0s0,0,0,0,0,0,0,0h0l-.06-.06v0l0,0,0,0a.09.09,0,0,0,0,0s0,0,0,0l-.06,0-.1.11-.06,0,.26-.29.14.13,0,0m-.17-.08-.06.08.06.06,0,0s0,0,0,0,0,0,0-.05l0,0Z" transform="translate(-152.43 -144.21)"/><polygon class="cls-4" points="93.91 28.85 93.75 28.72 93.7 28.79 93.85 28.9 93.81 28.95 93.66 28.84 93.6 28.92 93.77 29.05 93.73 29.1 93.49 28.93 93.73 28.62 93.95 28.79 93.91 28.85"/><path class="cls-4" d="M246.49,173.07l.08.05-.1.4-.07-.05,0-.08-.12-.08-.07.06-.07-.05Zm-.14.2.09,0,0-.15Z" transform="translate(-152.43 -144.21)"/><path class="cls-4" d="M246.93,173.33a.13.13,0,0,1,0,.07.16.16,0,0,1,0,.07s0,.05,0,.06a.53.53,0,0,1-.09.11.14.14,0,0,1-.15,0l-.15-.07.18-.35.15.08,0,0m-.15,0-.12.22.07,0a.1.1,0,0,0,.1,0,.15.15,0,0,0,0-.06.1.1,0,0,0,0-.09s0,0,0-.06Z" transform="translate(-152.43 -144.21)"/><polygon class="cls-4" points="94.83 29.33 94.64 29.25 94.61 29.33 94.79 29.39 94.76 29.46 94.59 29.39 94.55 29.48 94.75 29.56 94.72 29.63 94.45 29.52 94.59 29.16 94.86 29.26 94.83 29.33"/><polygon class="cls-4" points="95.08 29.33 95.17 29.36 94.92 29.69 94.85 29.66 94.84 29.26 94.92 29.28 94.92 29.59 95.08 29.33"/><polygon class="cls-4" points="95.42 29.48 95.22 29.44 95.2 29.52 95.38 29.56 95.37 29.62 95.18 29.58 95.16 29.68 95.37 29.72 95.36 29.79 95.07 29.73 95.15 29.35 95.43 29.41 95.42 29.48"/><polygon class="cls-4" points="95.44 29.41 95.52 29.43 95.48 29.74 95.67 29.77 95.66 29.84 95.39 29.8 95.44 29.41"/><path class="cls-4" d="M248.41,174a.17.17,0,0,1-.13,0,.17.17,0,0,1-.12,0,.2.2,0,0,1,0-.17.21.21,0,0,1,.07-.15.17.17,0,0,1,.13,0,.17.17,0,0,1,.12.05.22.22,0,0,1,0,.16.2.2,0,0,1-.07.16m0-.06a.15.15,0,0,0,0-.1.25.25,0,0,0,0-.1.1.1,0,0,0-.15,0,.15.15,0,0,0,0,.1.25.25,0,0,0,0,.1.09.09,0,0,0,.08,0,.11.11,0,0,0,.08,0" transform="translate(-152.43 -144.21)"/><path class="cls-4" d="M248.75,173.89s-.05,0-.09,0h-.08v.14h-.08v-.39h.17a.09.09,0,0,1,.09,0,.1.1,0,0,1,0,.09.11.11,0,0,1,0,.1m-.06-.13,0,0h-.08v.12h.07l0,0a.05.05,0,0,0,0,0s0,0,0,0" transform="translate(-152.43 -144.21)"/><path class="cls-4" d="M249,173.64h.12l0,.38h-.07l0-.26v-.06l0,.33H249l-.11-.31v.06l0,.26h-.07l-.05-.39h.12l.11.29Z" transform="translate(-152.43 -144.21)"/><polygon class="cls-4" points="97.03 29.42 96.83 29.46 96.84 29.55 97.03 29.5 97.04 29.57 96.86 29.61 96.88 29.71 97.09 29.66 97.1 29.73 96.82 29.79 96.73 29.41 97.01 29.35 97.03 29.42"/><polygon class="cls-4" points="97.02 29.35 97.1 29.33 97.33 29.54 97.25 29.28 97.32 29.26 97.43 29.63 97.36 29.65 97.12 29.44 97.2 29.7 97.13 29.72 97.02 29.35"/><polygon class="cls-4" points="97.59 29.15 97.62 29.21 97.51 29.26 97.63 29.55 97.55 29.58 97.44 29.29 97.33 29.33 97.3 29.27 97.59 29.15"/><polygon class="cls-4" points="97.9 29.43 97.83 29.46 97.66 29.11 97.74 29.08 97.9 29.43"/><polygon class="cls-4" points="97.75 29.07 97.82 29.03 98.09 29.19 97.96 28.96 98.02 28.92 98.21 29.26 98.14 29.3 97.87 29.14 98 29.38 97.94 29.41 97.75 29.07"/><path class="cls-4" d="M250.67,173.31l0,0a.11.11,0,0,0,.07,0l0,0a.06.06,0,0,0,0-.06h-.08l0,0-.08,0a.1.1,0,0,1-.08-.05.15.15,0,0,1,0-.09.16.16,0,0,1,.08-.09.1.1,0,0,1,.1,0,.09.09,0,0,1,.09.05l-.06,0s0,0-.06,0l0,0,0,0a.08.08,0,0,0,0,0h.08l.07,0s.05,0,.07,0a.08.08,0,0,1,.07,0,.12.12,0,0,1,0,.1.22.22,0,0,1-.08.09.19.19,0,0,1-.12,0,.12.12,0,0,1-.09,0Z" transform="translate(-152.43 -144.21)"/><polygon class="cls-4" points="98.5 28.57 98.54 28.63 98.45 28.7 98.65 28.95 98.59 29 98.39 28.75 98.3 28.82 98.25 28.77 98.5 28.57"/><rect class="cls-4" x="251.04" y="172.72" width="0.08" height="0.39" transform="translate(-203.48 69.44) rotate(-42.23)"/><polygon class="cls-4" points="98.76 28.32 98.81 28.37 98.73 28.45 98.95 28.68 98.89 28.74 98.67 28.51 98.59 28.59 98.54 28.54 98.76 28.32"/><path class="cls-4" d="M251.18,172.54l.06-.06.18.16s0,0,.05,0,0,0,.06,0,0,0,0-.07l0,0-.17-.16,0-.06.18.16a.16.16,0,0,1,.06.08.15.15,0,0,1,0,.14.13.13,0,0,1-.13.06.2.2,0,0,1-.09-.05Z" transform="translate(-152.43 -144.21)"/><polygon class="cls-4" points="99.14 27.86 99.19 27.9 99.12 27.99 99.38 28.18 99.33 28.25 99.07 28.06 99 28.15 98.95 28.11 99.14 27.86"/><polygon class="cls-4" points="99.34 27.67 99.23 27.84 99.3 27.89 99.4 27.73 99.45 27.76 99.35 27.92 99.44 27.98 99.55 27.79 99.61 27.83 99.45 28.08 99.13 27.87 99.28 27.63 99.34 27.67"/><polygon class="cls-5" points="95.09 24.58 93.32 24.58 93.32 27.05 95.09 27.05 93.84 25.81 95.09 24.58"/><rect class="cls-2" x="247.33" y="168.28" width="3.48" height="3.48" transform="translate(-199.7 81.73) rotate(-45)"/><polygon class="cls-3" points="94.73 25.5 94.86 25.5 94.86 25.78 95.1 25.5 95.26 25.5 94.99 25.81 95.27 26.15 95.1 26.15 94.86 25.85 94.86 25.85 94.86 26.15 94.73 26.15 94.73 25.5"/><path class="cls-3" d="M247.91,169.82H248a.22.22,0,1,1,0,.44h-.08v-.44m-.12.54H248c.2,0,.38-.06.38-.32s-.18-.33-.38-.33h-.17Z" transform="translate(-152.43 -144.21)"/><rect class="cls-3" x="96.02" y="25.5" width="0.13" height="0.65"/><path class="cls-3" d="M249,170l-.09,0s-.07,0-.07.06.19,0,.19.19-.07.13-.16.13h-.11v-.08l.09,0s.08,0,.08-.05-.19-.05-.19-.19a.14.14,0,0,1,.15-.14l.11,0V170" transform="translate(-152.43 -144.21)"/><path class="cls-3" d="M249.43,170.33h-.1c-.14,0-.24-.07-.24-.21a.22.22,0,0,1,.24-.24l.1,0V170a.16.16,0,0,0-.09,0,.15.15,0,0,0-.15.16.14.14,0,0,0,.15.15h.09v.07" transform="translate(-152.43 -144.21)"/><polygon class="cls-3" points="97.06 26.13 97.14 26.13 97.14 25.93 97.32 25.93 97.32 26.13 97.41 26.13 97.41 25.69 97.32 25.69 97.32 25.87 97.14 25.87 97.14 25.69 97.06 25.69 97.06 26.13"/><path class="cls-3" d="M250,170.12c0-.08,0-.16.12-.16s.12.08.12.16,0,.15-.12.15-.12-.07-.12-.15m-.09,0a.2.2,0,0,0,.21.22.2.2,0,0,0,.22-.22.21.21,0,0,0-.22-.23.21.21,0,0,0-.21.23" transform="translate(-152.43 -144.21)"/><path class="cls-3" d="M250.5,170.12c0-.08,0-.16.12-.16s.12.08.12.16,0,.15-.12.15-.12-.07-.12-.15m-.09,0a.2.2,0,0,0,.21.22.2.2,0,0,0,.21-.22.21.21,0,0,0-.21-.23c-.14,0-.21.09-.21.23" transform="translate(-152.43 -144.21)"/><polygon class="cls-3" points="98.48 25.69 98.56 25.69 98.56 26.06 98.73 26.06 98.73 26.13 98.48 26.13 98.48 25.69"/><polygon class="cls-4" points="91.99 25.87 91.99 25.79 92.15 25.79 92 25.64 92 25.54 92.15 25.7 92.39 25.53 92.38 25.64 92.21 25.75 92.25 25.79 92.38 25.8 92.38 25.88 91.99 25.87"/><path class="cls-4" d="M244.46,169.49a.17.17,0,0,1,.06-.06l.06,0h.07a.28.28,0,0,1,.13,0,.14.14,0,0,1,.05.14v.16l-.39,0,0-.16a.35.35,0,0,1,0-.06m0,.15.25,0v-.07a.11.11,0,0,0-.05-.09l-.07,0h-.1s0,0,0,.07Z" transform="translate(-152.43 -144.21)"/><polygon class="cls-4" points="92.44 25.14 92.42 25.22 92.04 25.15 92.06 25.07 92.44 25.14"/><path class="cls-4" d="M244.79,169.14s0,0,0,0a.09.09,0,0,0,0-.06s0,0,0-.05,0,0,0,0,0,0,0,0,0,0,0,0l0,0,0,.08a.1.1,0,0,1-.09,0,.09.09,0,0,1-.08,0,.24.24,0,0,1,0-.12.31.31,0,0,1,.05-.1.14.14,0,0,1,.11,0l0,.08s0,0-.06,0a.05.05,0,0,0,0,0,0,0,0,0,0,0,0,0,0,0,0,0,0,0h0a.11.11,0,0,0,0-.05l0-.06s0,0,.05-.06a.08.08,0,0,1,.08,0,.12.12,0,0,1,.08.06.23.23,0,0,1,0,.12.23.23,0,0,1-.07.11.12.12,0,0,1-.1,0Z" transform="translate(-152.43 -144.21)"/><path class="cls-4" d="M244.65,168.79a.2.2,0,0,1,0-.13.15.15,0,0,1,.11-.11h.08l0,.08h-.05s0,0,0,.05a.06.06,0,0,0,0,.07.15.15,0,0,0,.09.06.18.18,0,0,0,.1,0,.1.1,0,0,0,.05-.06,0,0,0,0,0,0-.06s0,0,0,0l0-.07a.18.18,0,0,1,.07.08.16.16,0,0,1,0,.12.17.17,0,0,1-.1.1.19.19,0,0,1-.15,0,.2.2,0,0,1-.13-.1" transform="translate(-152.43 -144.21)"/><polygon class="cls-4" points="92.64 24.41 92.29 24.25 92.32 24.18 92.45 24.24 92.52 24.1 92.39 24.04 92.42 23.97 92.77 24.13 92.74 24.2 92.58 24.13 92.52 24.27 92.67 24.34 92.64 24.41"/><path class="cls-4" d="M245.33,168a.24.24,0,0,1,0,.14.18.18,0,0,1-.11.08.22.22,0,0,1-.27-.16.13.13,0,0,1,0-.13.21.21,0,0,1,.1-.09.27.27,0,0,1,.17,0,.22.22,0,0,1,.11.13m-.08,0a.17.17,0,0,0-.07-.08.13.13,0,0,0-.1,0s-.05,0-.07,0a.08.08,0,0,0,0,.08s0,0,.08.07a.1.1,0,0,0,.1,0s0,0,.07-.05a.11.11,0,0,0,0-.08" transform="translate(-152.43 -144.21)"/><path class="cls-4" d="M245.54,167.74a.22.22,0,0,1-.15.21.2.2,0,0,1-.16,0,.22.22,0,0,1-.1-.14.18.18,0,0,1,0-.13.15.15,0,0,1,.11-.07.17.17,0,0,1,.16,0,.22.22,0,0,1,.1.14m-.08,0a.16.16,0,0,0-.06-.08.16.16,0,0,0-.1,0,.08.08,0,0,0-.07,0,.1.1,0,0,0,0,.09.21.21,0,0,0,.06.08l.1,0a.09.09,0,0,0,.08,0,.11.11,0,0,0,0-.08" transform="translate(-152.43 -144.21)"/><polygon class="cls-4" points="92.88 23.25 92.93 23.19 93.17 23.39 93.3 23.25 93.35 23.29 93.17 23.5 92.88 23.25"/><path class="cls-4" d="M246,167.21a.17.17,0,0,1-.06.12.17.17,0,0,1-.13,0,.21.21,0,0,1-.15-.07.19.19,0,0,1-.06-.16.21.21,0,0,1,.18-.18.22.22,0,0,1,.15.08.21.21,0,0,1,.07.16m-.08,0a.14.14,0,0,0-.05-.09.24.24,0,0,0-.09-.06.13.13,0,0,0-.08,0,.11.11,0,0,0,0,.08.19.19,0,0,0,.14.14.08.08,0,0,0,.08,0,.11.11,0,0,0,0-.08" transform="translate(-152.43 -144.21)"/><polygon class="cls-4" points="93.44 22.68 93.66 22.5 93.7 22.56 93.55 22.68 93.6 22.75 93.74 22.64 93.78 22.7 93.64 22.8 93.74 22.93 93.68 22.98 93.44 22.68"/><path class="cls-4" d="M246.54,166.69a.15.15,0,0,1-.07.07l-.07,0,.08.12-.07,0-.21-.32.14-.09a.12.12,0,0,1,.1,0s.05,0,.07.05a.13.13,0,0,1,0,.11m-.13-.09h0l-.06,0,.06.1.06,0,0,0a.06.06,0,0,0,0,0,.05.05,0,0,0,0,0" transform="translate(-152.43 -144.21)"/><path class="cls-4" d="M246.49,166.46l.07,0,.11.21a.07.07,0,0,0,0,.05s0,0,.07,0a.07.07,0,0,0,0-.06l0-.05-.11-.22.07,0,.11.21a.19.19,0,0,1,0,.09.14.14,0,0,1-.09.12.16.16,0,0,1-.15,0,.28.28,0,0,1-.06-.08Z" transform="translate(-152.43 -144.21)"/><path class="cls-4" d="M247.1,166.22a.1.1,0,0,1,0,.05.06.06,0,0,1,0,.06s0,0,0,0l.05,0s0,0,0,0a.09.09,0,0,1,0,.07.08.08,0,0,1,0,0l0,0,0,0-.17.07-.14-.36.17-.07a.14.14,0,0,1,.11,0m-.18.11,0,.07.09,0,0,0a0,0,0,0,0,0,0,0,0,0,0,0,0,0h0Zm.05.13,0,.1.09,0,0,0a0,0,0,0,0,0-.05s0,0,0,0h0Z" transform="translate(-152.43 -144.21)"/><polygon class="cls-4" points="94.72 21.95 94.8 21.93 94.9 22.23 95.08 22.17 95.1 22.24 94.84 22.32 94.72 21.95"/><polygon class="cls-4" points="95.18 22.22 95.1 22.24 95 21.87 95.08 21.85 95.18 22.22"/><path class="cls-4" d="M247.6,166.08a.16.16,0,0,1,.11-.07.19.19,0,0,1,.15,0,.13.13,0,0,1,0,.07h-.08l0,0s0,0-.06,0a.1.1,0,0,0-.07,0,.2.2,0,0,0,0,.11.19.19,0,0,0,0,.09l.08,0a.1.1,0,0,0,.05,0,.07.07,0,0,0,0-.05l.08,0a.18.18,0,0,1,0,.11.11.11,0,0,1-.1.06.17.17,0,0,1-.14,0,.21.21,0,0,1-.07-.14.21.21,0,0,1,0-.16" transform="translate(-152.43 -144.21)"/><path class="cls-4" d="M248.3,166.16a.13.13,0,0,1-.09,0h-.08v.13h-.08l0-.38.16,0a.17.17,0,0,1,.1,0s0,0,0,.08a.13.13,0,0,1,0,.1m-.07-.13h-.12v.11h.11a.08.08,0,0,0,0-.05.05.05,0,0,0,0,0" transform="translate(-152.43 -144.21)"/><path class="cls-4" d="M248.66,166.3a.18.18,0,0,1-.13,0,.14.14,0,0,1-.13-.05.19.19,0,0,1-.05-.16.21.21,0,0,1,.06-.16.17.17,0,0,1,.13,0,.17.17,0,0,1,.12,0,.2.2,0,0,1,.06.16.21.21,0,0,1-.06.16m0-.06a.18.18,0,0,0,0-.2.08.08,0,0,0-.07,0,.1.1,0,0,0-.08,0,.17.17,0,0,0,0,.1c0,.05,0,.08,0,.11a.08.08,0,0,0,.07,0,.11.11,0,0,0,.08,0" transform="translate(-152.43 -144.21)"/><polygon class="cls-4" points="96.32 21.74 96.41 21.75 96.38 22.07 96.57 22.08 96.56 22.15 96.29 22.13 96.32 21.74"/><polygon class="cls-4" points="96.64 22.17 96.56 22.16 96.61 21.77 96.69 21.79 96.64 22.17"/><path class="cls-4" d="M249.2,166.05a.15.15,0,0,1,.13,0,.18.18,0,0,1,.12.1.17.17,0,0,1,0,.07h-.08a.07.07,0,0,0,0-.05.09.09,0,0,0-.06,0,.08.08,0,0,0-.07,0,.19.19,0,0,0-.05.1.16.16,0,0,0,0,.1.07.07,0,0,0,.06,0,.09.09,0,0,0,.07,0,.05.05,0,0,0,0,0l.08,0a.16.16,0,0,1-.07.09.14.14,0,0,1-.11,0,.15.15,0,0,1-.12-.08.19.19,0,0,1,0-.15.24.24,0,0,1,.09-.14" transform="translate(-152.43 -144.21)"/><polygon class="cls-4" points="97.31 21.93 97.39 21.96 97.2 22.15 97.16 22.29 97.08 22.27 97.12 22.13 97.06 21.86 97.16 21.89 97.18 22.07 97.31 21.93"/><path class="cls-4" d="M250,166.25l.08,0,0,.41-.08,0v-.08l-.13-.06,0,.07-.08,0Zm-.1.22.09,0v-.16Z" transform="translate(-152.43 -144.21)"/><polygon class="cls-4" points="97.83 22.14 97.9 22.18 97.91 22.49 98.04 22.26 98.1 22.29 97.92 22.63 97.85 22.59 97.84 22.28 97.71 22.52 97.64 22.48 97.83 22.14"/><path class="cls-4" d="M250.77,166.67s0,0,0,.07,0,0,0,.07a.21.21,0,0,1,0,.06.26.26,0,0,1-.09.09.16.16,0,0,1-.15,0l-.14-.1.21-.32.15.1,0,0m-.16,0-.14.21.06,0a.08.08,0,0,0,.1,0,.12.12,0,0,0,.05,0,.14.14,0,0,0,0-.09.08.08,0,0,0-.05-.07Z" transform="translate(-152.43 -144.21)"/><path class="cls-4" d="M251.25,167l.08.08-.26.28-.06-.05.18-.19,0,0,0,0-.27.19-.06-.05.17-.29,0,0,0,0-.17.19-.06,0,.26-.29.09.08-.15.28Z" transform="translate(-152.43 -144.21)"/><path class="cls-4" d="M251.45,167.24l.06.07-.2.36-.06-.06.05-.08-.1-.1-.08,0-.05-.06Zm-.19.16.07.07.08-.14Z" transform="translate(-152.43 -144.21)"/><polygon class="cls-4" points="99.18 23.22 99.23 23.29 99.11 23.57 99.33 23.41 99.37 23.47 99.06 23.7 99.01 23.64 99.14 23.35 98.92 23.52 98.87 23.45 99.18 23.22"/><path class="cls-4" d="M251.89,167.82l.05.08-.26.32,0-.07.05-.07-.07-.12-.08,0,0-.07Zm-.2.12.05.09.1-.12Z" transform="translate(-152.43 -144.21)"/><path class="cls-4" d="M252,168.33s0,0,0-.07a.08.08,0,0,0,0,0s0,0-.06-.05a.15.15,0,0,0-.11,0s-.07,0-.08.07a.11.11,0,0,0,0,.08.08.08,0,0,0,.05,0,.08.08,0,0,0,.07,0l0-.08.06,0,.07.15-.19.09,0-.05,0,0-.06,0s0,0,0-.06a.22.22,0,0,1,0-.14.29.29,0,0,1,.11-.11.31.31,0,0,1,.16,0,.18.18,0,0,1,.11.1.14.14,0,0,1,0,.12.15.15,0,0,1-.06.09Z" transform="translate(-152.43 -144.21)"/><polygon class="cls-4" points="99.81 24.48 99.73 24.29 99.65 24.32 99.72 24.5 99.66 24.52 99.59 24.34 99.5 24.38 99.58 24.58 99.51 24.61 99.41 24.33 99.77 24.19 99.87 24.46 99.81 24.48"/><path class="cls-4" d="M252.39,169l0,.11-.37.1,0-.07.25-.07h.06l-.33,0,0-.08.29-.15h-.06l-.25.07,0-.07.37-.1,0,.11-.27.15Z" transform="translate(-152.43 -144.21)"/><polygon class="cls-4" points="99.98 25.21 99.95 25.01 99.86 25.03 99.9 25.21 99.83 25.23 99.8 25.04 99.7 25.06 99.74 25.27 99.67 25.28 99.62 24.99 100 24.92 100.05 25.2 99.98 25.21"/><polygon class="cls-4" points="100.06 25.25 100.07 25.34 99.81 25.51 100.08 25.49 100.09 25.56 99.7 25.6 99.69 25.52 99.95 25.34 99.68 25.36 99.67 25.29 100.06 25.25"/><polygon class="cls-4" points="100.09 25.9 100.02 25.9 100.02 25.79 99.7 25.79 99.7 25.71 100.02 25.7 100.02 25.59 100.09 25.59 100.09 25.9"/><polyline class="cls-6" points="102.2 27.22 102.38 27.22 102.38 27.6 102.7 27.22 102.92 27.22 102.58 27.6 102.94 28.15 102.72 28.15 102.46 27.74 102.38 27.84 102.38 28.15 102.2 28.15 102.2 27.22"/><path class="cls-6" d="M255.94,171.45a.31.31,0,0,1,.14.12.34.34,0,0,1,.06.15.76.76,0,0,1,0,.15.59.59,0,0,1-.07.31.28.28,0,0,1-.27.18h-.36v-.93h.36l.13,0m-.32.14v.61h.16a.18.18,0,0,0,.17-.14.48.48,0,0,0,0-.18.56.56,0,0,0,0-.21.17.17,0,0,0-.16-.08Z" transform="translate(-152.43 -144.21)"/><rect class="cls-6" x="103.82" y="27.22" width="0.17" height="0.93"/><path class="cls-6" d="M257,172.07a.29.29,0,0,0,0,.1.21.21,0,0,0,.15.05h.1a.11.11,0,0,0,.07-.11.09.09,0,0,0,0-.07.34.34,0,0,0-.12,0l-.09,0a.51.51,0,0,1-.18-.08.21.21,0,0,1-.09-.19.26.26,0,0,1,.09-.21.29.29,0,0,1,.24-.08.32.32,0,0,1,.22.07.28.28,0,0,1,.1.23h-.17a.12.12,0,0,0-.06-.12l-.1,0a.16.16,0,0,0-.11,0,.08.08,0,0,0,0,.08.07.07,0,0,0,0,.07s.05,0,.11,0l.14,0a.37.37,0,0,1,.14.07.24.24,0,0,1,.08.19.29.29,0,0,1-.09.21.37.37,0,0,1-.25.08.39.39,0,0,1-.25-.08.31.31,0,0,1-.1-.23H257" transform="translate(-152.43 -144.21)"/><path class="cls-6" d="M258,171.92s0,0,0-.07a.08.08,0,0,0-.08,0,.11.11,0,0,0-.11.09.53.53,0,0,0,0,.13.45.45,0,0,0,0,.13.12.12,0,0,0,.11.08.11.11,0,0,0,.08,0,.46.46,0,0,0,0-.09h.16a.25.25,0,0,1-.05.15.25.25,0,0,1-.22.12.25.25,0,0,1-.22-.1.39.39,0,0,1-.07-.25.41.41,0,0,1,.08-.28.26.26,0,0,1,.21-.09.38.38,0,0,1,.19.05.29.29,0,0,1,.08.21H258" transform="translate(-152.43 -144.21)"/><path class="cls-6" d="M258.68,171.68a.24.24,0,0,1,.08.06.41.41,0,0,1,0,.08v.54h-.16v-.42a.2.2,0,0,0,0-.09.08.08,0,0,0-.08,0,.14.14,0,0,0-.1,0,.26.26,0,0,0,0,.14v.37h-.16v-.92h.16v.32a.2.2,0,0,1,.08-.08.16.16,0,0,1,.1,0,.18.18,0,0,1,.1,0" transform="translate(-152.43 -144.21)"/><path class="cls-6" d="M259.44,172.27a.25.25,0,0,1-.23.11.26.26,0,0,1-.24-.11.41.41,0,0,1-.08-.25.45.45,0,0,1,.08-.26.28.28,0,0,1,.24-.11.27.27,0,0,1,.23.11.38.38,0,0,1,.08.26.36.36,0,0,1-.08.25m-.12-.09a.38.38,0,0,0,0-.16.32.32,0,0,0,0-.16.14.14,0,0,0-.11-.06.11.11,0,0,0-.11.06.24.24,0,0,0,0,.16.27.27,0,0,0,0,.16.13.13,0,0,0,.11,0A.16.16,0,0,0,259.32,172.18Z" transform="translate(-152.43 -144.21)"/><path class="cls-6" d="M260.13,172.27a.26.26,0,0,1-.24.11.25.25,0,0,1-.23-.11.41.41,0,0,1-.08-.25.45.45,0,0,1,.08-.26.27.27,0,0,1,.23-.11.28.28,0,0,1,.24.11.45.45,0,0,1,.08.26.41.41,0,0,1-.08.25m-.13-.09a.27.27,0,0,0,0-.16.24.24,0,0,0,0-.16.11.11,0,0,0-.11-.06.14.14,0,0,0-.11.06.32.32,0,0,0,0,.16.38.38,0,0,0,0,.16.16.16,0,0,0,.11,0A.13.13,0,0,0,260,172.18Z" transform="translate(-152.43 -144.21)"/><rect class="cls-6" x="107.87" y="27.22" width="0.16" height="0.92"/><path class="cls-6" d="M261.43,172.27a.27.27,0,0,1-.24.11.26.26,0,0,1-.24-.11.41.41,0,0,1-.08-.25.45.45,0,0,1,.08-.26.28.28,0,0,1,.24-.11.29.29,0,0,1,.24.11.44.44,0,0,1,.07.26.41.41,0,0,1-.07.25m-.13-.09a.27.27,0,0,0,0-.16.24.24,0,0,0,0-.16.13.13,0,0,0-.22,0,.24.24,0,0,0,0,.16.27.27,0,0,0,0,.16.15.15,0,0,0,.22,0Z" transform="translate(-152.43 -144.21)"/><path class="cls-6" d="M261.85,171.42h0v.14h-.05l0,0,0,0v.06h.11v.13h-.11v.55h-.15v-.55h-.09v-.13h.08v0a.28.28,0,0,1,0-.16s.08-.06.17-.06h0" transform="translate(-152.43 -144.21)"/><path class="cls-6" d="M262.84,172a.33.33,0,0,1-.21.06h-.17v.34h-.17v-.93h.35a.27.27,0,0,1,.2.07.29.29,0,0,1,.07.22.33.33,0,0,1-.07.24m-.13-.34a.17.17,0,0,0-.1,0h-.15v.27h.15a.17.17,0,0,0,.1,0,.16.16,0,0,0,0-.11A.15.15,0,0,0,262.71,171.62Z" transform="translate(-152.43 -144.21)"/><path class="cls-6" d="M263.19,171.67v.41a.22.22,0,0,0,0,.09s0,.05.08.05a.11.11,0,0,0,.12-.07.34.34,0,0,0,0-.11v-.37h.16v.69h-.15v-.08l0,0-.08.05h-.08a.17.17,0,0,1-.18-.11.42.42,0,0,1,0-.18v-.41h.17" transform="translate(-152.43 -144.21)"/><path class="cls-6" d="M264.24,171.76a.44.44,0,0,1,.06.25.53.53,0,0,1-.06.26.23.23,0,0,1-.19.11.21.21,0,0,1-.12,0,.22.22,0,0,1-.07-.07v.09h-.15v-.93h.16v.33l.06-.07a.21.21,0,0,1,.12,0,.22.22,0,0,1,.19.1m-.14.41a.26.26,0,0,0,0-.14.51.51,0,0,0,0-.13.13.13,0,0,0-.24,0,.39.39,0,0,0,0,.13.23.23,0,0,0,0,.14.11.11,0,0,0,.1.06A.1.1,0,0,0,264.1,172.17Z" transform="translate(-152.43 -144.21)"/><rect class="cls-6" x="111.97" y="27.22" width="0.16" height="0.92"/><path class="cls-6" d="M264.87,171.43v.16h-.16v-.16Zm-.16.93v-.69h.16v.69Z" transform="translate(-152.43 -144.21)"/><path class="cls-6" d="M265.37,171.92a.14.14,0,0,0,0-.07.11.11,0,0,0-.09,0,.1.1,0,0,0-.1.09.27.27,0,0,0,0,.13.24.24,0,0,0,0,.13.1.1,0,0,0,.1.08s.07,0,.08,0a.12.12,0,0,0,0-.09h.16a.25.25,0,0,1,0,.15.24.24,0,0,1-.22.12.25.25,0,0,1-.22-.1.51.51,0,0,1,0-.53.26.26,0,0,1,.21-.09.36.36,0,0,1,.19.05.29.29,0,0,1,.09.21h-.17" transform="translate(-152.43 -144.21)"/><path class="cls-6" d="M266.5,172a.28.28,0,0,1-.2.06h-.18v.34H266v-.93h.36a.24.24,0,0,1,.19.07.29.29,0,0,1,.08.22.33.33,0,0,1-.08.24m-.13-.34a.12.12,0,0,0-.09,0h-.16v.27h.16a.12.12,0,0,0,.09,0,.16.16,0,0,0,0-.11A.15.15,0,0,0,266.37,171.62Z" transform="translate(-152.43 -144.21)"/><path class="cls-6" d="M267.2,172.27a.25.25,0,0,1-.23.11.26.26,0,0,1-.24-.11.41.41,0,0,1-.08-.25.45.45,0,0,1,.08-.26.28.28,0,0,1,.24-.11.27.27,0,0,1,.23.11.38.38,0,0,1,.08.26.36.36,0,0,1-.08.25m-.12-.09a.38.38,0,0,0,0-.16.31.31,0,0,0,0-.16.14.14,0,0,0-.11-.06.11.11,0,0,0-.11.06.24.24,0,0,0,0,.16.27.27,0,0,0,0,.16.13.13,0,0,0,.11,0A.16.16,0,0,0,267.08,172.18Z" transform="translate(-152.43 -144.21)"/><rect class="cls-6" x="114.95" y="27.22" width="0.16" height="0.92"/><path class="cls-6" d="M267.84,171.43v.16h-.16v-.16Zm-.16.93v-.69h.16v.69Z" transform="translate(-152.43 -144.21)"/><path class="cls-6" d="M268.35,171.92a.64.64,0,0,0,0-.07.11.11,0,0,0-.09,0,.11.11,0,0,0-.11.09.53.53,0,0,0,0,.13.45.45,0,0,0,0,.13.12.12,0,0,0,.11.08.1.1,0,0,0,.08,0l0-.09h.16a.25.25,0,0,1-.05.15.25.25,0,0,1-.22.12.25.25,0,0,1-.22-.1A.39.39,0,0,1,268,172a.47.47,0,0,1,.08-.28.26.26,0,0,1,.21-.09.36.36,0,0,1,.19.05.29.29,0,0,1,.08.21h-.16" transform="translate(-152.43 -144.21)"/><path class="cls-6" d="M268.63,172.49h.1l0,0a.1.1,0,0,0,0,0l-.23-.72h.18l.14.51.12-.51h.18l-.22.68a1.22,1.22,0,0,1-.09.24.19.19,0,0,1-.15,0h-.07v-.14" transform="translate(-152.43 -144.21)"/><path class="cls-6" d="M269.78,171.94l.07,0a.05.05,0,0,0,0,0,.06.06,0,0,0,0-.06h-.07s-.07,0-.08,0a.11.11,0,0,0,0,.06h-.16a.26.26,0,0,1,0-.14.27.27,0,0,1,.22-.09.34.34,0,0,1,.18,0,.18.18,0,0,1,.08.17v.39a.2.2,0,0,0,0,.05s0,0,0,0v0h-.18a.08.08,0,0,1,0,0v0a.23.23,0,0,1-.07.07.24.24,0,0,1-.26,0,.25.25,0,0,1-.05-.16.2.2,0,0,1,.09-.18.39.39,0,0,1,.14,0h0m.1.08,0,0h-.08l-.07,0a.07.07,0,0,0,0,.07.12.12,0,0,0,0,.07l.06,0a.14.14,0,0,0,.09,0,.17.17,0,0,0,.05-.13Z" transform="translate(-152.43 -144.21)"/><path class="cls-6" d="M270.66,171.71a.24.24,0,0,1,.06.18v.47h-.17v-.42a.17.17,0,0,0,0-.08.1.1,0,0,0-.09-.06.12.12,0,0,0-.11.08.34.34,0,0,0,0,.11v.37h-.17v-.68h.16v.09a.22.22,0,0,1,.06-.07.16.16,0,0,1,.12,0,.21.21,0,0,1,.16.05" transform="translate(-152.43 -144.21)"/><path class="cls-6" d="M271.18,171.68a.27.27,0,0,1,.07.08v-.33h.16v.93h-.16v-.09s0,.07-.07.08a.2.2,0,0,1-.11,0,.21.21,0,0,1-.18-.1.39.39,0,0,1-.08-.25.43.43,0,0,1,.08-.27.22.22,0,0,1,.19-.1.16.16,0,0,1,.1,0m0,.49a.26.26,0,0,0,0-.14.26.26,0,0,0-.05-.18.1.1,0,0,0-.08,0,.13.13,0,0,0-.11.06.33.33,0,0,0,0,.15.21.21,0,0,0,0,.15.1.1,0,0,0,.1.06A.12.12,0,0,0,271.22,172.17Z" transform="translate(-152.43 -144.21)"/><path class="cls-6" d="M272.41,171.43h.25v.93h-.16v-.78l-.16.78h-.17l-.15-.78v.78h-.17v-.93h.26l.15.73.15-.73" transform="translate(-152.43 -144.21)"/><path class="cls-6" d="M273,171.94l.07,0a0,0,0,0,0,0,0,.06.06,0,0,0,0-.06H273s-.07,0-.08,0a.11.11,0,0,0,0,.06h-.16a.26.26,0,0,1,0-.14.27.27,0,0,1,.22-.09.34.34,0,0,1,.18,0,.18.18,0,0,1,.08.17v.39a.2.2,0,0,0,0,.05s0,0,0,0v0h-.17a.08.08,0,0,1,0,0v0l-.08.07a.24.24,0,0,1-.26,0,.25.25,0,0,1-.05-.16.2.2,0,0,1,.09-.18.39.39,0,0,1,.14,0h0m.1.08,0,0H273l-.07,0a.07.07,0,0,0,0,.07.12.12,0,0,0,0,.07l.06,0a.14.14,0,0,0,.09,0,.17.17,0,0,0,.05-.13Z" transform="translate(-152.43 -144.21)"/><path class="cls-6" d="M273.91,171.71a.25.25,0,0,1,.06.19v.46h-.17v-.42a.17.17,0,0,0,0-.08.1.1,0,0,0-.09-.06.12.12,0,0,0-.11.08.34.34,0,0,0,0,.11v.37h-.17v-.68h.16v.09a.22.22,0,0,1,.06-.07.16.16,0,0,1,.12,0,.21.21,0,0,1,.16.05" transform="translate(-152.43 -144.21)"/><path class="cls-6" d="M274.34,171.94l.07,0a0,0,0,0,0,0,0,.08.08,0,0,0,0-.06h-.08a.1.1,0,0,0-.08,0,.11.11,0,0,0,0,.06h-.16a.2.2,0,0,1,.05-.14.24.24,0,0,1,.22-.09.33.33,0,0,1,.17,0c.06,0,.08.08.08.17v.39a.13.13,0,0,1,0,.05l0,0v0h-.18s0,0,0,0v0l-.08.07a.21.21,0,0,1-.12,0,.19.19,0,0,1-.13,0,.21.21,0,0,1-.06-.16.2.2,0,0,1,.09-.18.39.39,0,0,1,.14,0h0m.1.08,0,0h-.08l-.07,0a.08.08,0,0,0,0,.07s0,.06,0,.07l.05,0a.13.13,0,0,0,.14-.16Z" transform="translate(-152.43 -144.21)"/><path class="cls-6" d="M275,171.67a.24.24,0,0,1,.1.1v-.1h.15v.65a.49.49,0,0,1,0,.2.29.29,0,0,1-.27.12.29.29,0,0,1-.19-.06.16.16,0,0,1-.08-.15h.17s0,0,0,0l.09,0a.11.11,0,0,0,.11-.06.28.28,0,0,0,0-.14v-.05a.18.18,0,0,1-.05.07.16.16,0,0,1-.12,0,.23.23,0,0,1-.19-.09.39.39,0,0,1-.07-.25.42.42,0,0,1,.07-.26.21.21,0,0,1,.19-.1H275m.05.49a.21.21,0,0,0,0-.15.33.33,0,0,0,0-.15.14.14,0,0,0-.1-.05c-.06,0-.09,0-.12.09a.41.41,0,0,0,0,.12.16.16,0,0,0,0,.1.11.11,0,0,0,.11.09A.09.09,0,0,0,275.08,172.16Z" transform="translate(-152.43 -144.21)"/><path class="cls-6" d="M275.82,171.69a.24.24,0,0,1,.1.1.34.34,0,0,1,.05.14s0,.08,0,.13h-.45a.18.18,0,0,0,.06.15.15.15,0,0,0,.09,0,.12.12,0,0,0,.09,0l0,0H276a.34.34,0,0,1-.06.12.28.28,0,0,1-.23.1.33.33,0,0,1-.22-.08.38.38,0,0,1-.09-.28.41.41,0,0,1,.08-.27.29.29,0,0,1,.22-.09.37.37,0,0,1,.15,0m-.25.15a.28.28,0,0,0,0,.11h.28a.16.16,0,0,0,0-.11.14.14,0,0,0-.2,0Z" transform="translate(-152.43 -144.21)"/><path class="cls-6" d="M276.81,171.68a.13.13,0,0,1,.07.06.19.19,0,0,1,0,.09v.53h-.16v-.44s0,0,0-.06a.09.09,0,0,0-.08-.05.1.1,0,0,0-.1.06s0,0,0,.08v.41h-.16V172a.22.22,0,0,0,0-.09.09.09,0,0,0-.08-.05.11.11,0,0,0-.1.05.22.22,0,0,0,0,.09v.41H276v-.68h.15v.09a.22.22,0,0,1,.06-.07.16.16,0,0,1,.12,0,.21.21,0,0,1,.12,0,.19.19,0,0,1,.05.09.18.18,0,0,1,.08-.09.2.2,0,0,1,.11,0,.11.11,0,0,1,.08,0" transform="translate(-152.43 -144.21)"/><path class="cls-6" d="M277.45,171.69a.26.26,0,0,1,.11.1.33.33,0,0,1,0,.14.49.49,0,0,1,0,.13h-.45a.18.18,0,0,0,.07.15s0,0,.09,0a.16.16,0,0,0,.09,0l0,0h.16a.17.17,0,0,1-.06.12.26.26,0,0,1-.23.1.32.32,0,0,1-.21-.08.34.34,0,0,1-.1-.28.37.37,0,0,1,.09-.27.28.28,0,0,1,.22-.09.32.32,0,0,1,.14,0m-.24.15a.19.19,0,0,0,0,.11h.29a.16.16,0,0,0-.05-.11.15.15,0,0,0-.1,0A.13.13,0,0,0,277.21,171.84Z" transform="translate(-152.43 -144.21)"/><path class="cls-6" d="M278.17,171.71a.25.25,0,0,1,.06.19v.46h-.17v-.42a.17.17,0,0,0,0-.08.08.08,0,0,0-.09-.06.12.12,0,0,0-.11.08.34.34,0,0,0,0,.11v.37h-.16v-.68h.15v.09a.22.22,0,0,1,.06-.07.16.16,0,0,1,.12,0,.21.21,0,0,1,.16.05" transform="translate(-152.43 -144.21)"/><path class="cls-6" d="M278.3,171.81v-.13h.09v-.19h.16v.19h.1v.13h-.1v.36s0,0,0,.05h.09v.13h-.08a.22.22,0,0,1-.16-.05.2.2,0,0,1,0-.09v-.42h-.09" transform="translate(-152.43 -144.21)"/><path class="cls-2" d="M254.64,167.68h.63V169l1.12-1.34h.76l-1.27,1.47,1.33,1.64h-.82l-1.11-1.44h0v1.44h-.63Z" transform="translate(-152.43 -144.21)"/><path class="cls-2" d="M257.41,167.68h.85c.95,0,1.8.32,1.8,1.55s-.85,1.56-1.8,1.56h-.85Zm.62,2.62h.35a1.07,1.07,0,0,0,0-2.13H258Z" transform="translate(-152.43 -144.21)"/><path class="cls-2" d="M260.37,167.68H261v3.11h-.62Z" transform="translate(-152.43 -144.21)"/><path class="cls-2" d="M264.17,168.25a1.74,1.74,0,0,0-.64-.13.43.43,0,0,0-.49.43c0,.54,1.37.31,1.37,1.35,0,.68-.54.94-1.17.94a2.63,2.63,0,0,1-.8-.12l.06-.56a1.44,1.44,0,0,0,.7.19c.24,0,.56-.12.56-.4,0-.59-1.37-.35-1.37-1.37,0-.7.54-1,1.09-1a2.17,2.17,0,0,1,.74.11Z" transform="translate(-152.43 -144.21)"/><path class="cls-2" d="M267,170.74a2.83,2.83,0,0,1-.71.1,1.49,1.49,0,0,1-1.7-1.55,1.54,1.54,0,0,1,1.7-1.66,2.06,2.06,0,0,1,.71.13l0,.52a1.3,1.3,0,0,0-.67-.16,1,1,0,0,0-1,1.12,1,1,0,0,0,1.05,1.11,1.61,1.61,0,0,0,.68-.13Z" transform="translate(-152.43 -144.21)"/><path class="cls-2" d="M267.29,167.68h.62v1.26h1.25v-1.26h.62v3.11h-.62v-1.36h-1.25v1.36h-.62Z" transform="translate(-152.43 -144.21)"/><path class="cls-2" d="M271.67,167.63a1.61,1.61,0,1,1-1.52,1.6A1.45,1.45,0,0,1,271.67,167.63Zm0,2.72c.64,0,.87-.56.87-1.12s-.25-1.11-.87-1.11-.87.56-.87,1.11S271,170.35,271.67,170.35Z" transform="translate(-152.43 -144.21)"/><path class="cls-2" d="M274.93,167.63a1.61,1.61,0,1,1-1.52,1.6A1.44,1.44,0,0,1,274.93,167.63Zm0,2.72c.64,0,.88-.56.88-1.12s-.26-1.11-.88-1.11-.87.56-.87,1.11S274.3,170.35,274.93,170.35Z" transform="translate(-152.43 -144.21)"/><path class="cls-2" d="M276.82,167.68h.63v2.62h1.2v.49h-1.83Z" transform="translate(-152.43 -144.21)"/><path class="cls-7" d="M215.86,167h-.37l-.81.91V167h-.31v2h.16c.17,0,.15-.19.15-.19h0v-.53l.22-.24.62,1h.37s-.76-1.18-.79-1.21Z" transform="translate(-152.43 -144.21)"/><path class="cls-7" d="M216.62,167.51a.59.59,0,0,0-.48.18h0a1,1,0,0,0-.16.63,1,1,0,0,0,.15.6.54.54,0,0,0,.48.2.58.58,0,0,0,.49-.2,1,1,0,0,0,.15-.6Q217.25,167.51,216.62,167.51Zm.22,1.28a.25.25,0,0,1-.23.1.27.27,0,0,1-.26-.14,1.12,1.12,0,0,1-.06-.43,1,1,0,0,1,.08-.45.24.24,0,0,1,.23-.13.27.27,0,0,1,.27.14,1.27,1.27,0,0,1,0,.91Z" transform="translate(-152.43 -144.21)"/><path class="cls-7" d="M218.19,167.52a.43.43,0,0,0-.39.2v-.18h-.28v1.54h.15a.16.16,0,0,0,.14-.16v-.78a.35.35,0,0,1,.1-.27.3.3,0,0,1,.25-.1.23.23,0,0,1,.11,0h0v-.29h-.11Z" transform="translate(-152.43 -144.21)"/><path class="cls-7" d="M218.94,167.51a.51.51,0,0,0-.44.21,1,1,0,0,0-.13.56,1.12,1.12,0,0,0,.14.62.5.5,0,0,0,.43.23.58.58,0,0,0,.38-.12.55.55,0,0,0,.18-.45v0h-.29v0a.5.5,0,0,1-.07.26.21.21,0,0,1-.18.09.22.22,0,0,1-.21-.13.85.85,0,0,1-.08-.43h.83v0a1.07,1.07,0,0,0-.15-.68A.53.53,0,0,0,218.94,167.51Zm-.27.62a.51.51,0,0,1,.08-.3.24.24,0,0,1,.21-.1c.16,0,.24.13.24.4Z" transform="translate(-152.43 -144.21)"/><path class="cls-7" d="M220.82,168.86a.2.2,0,0,1,0-.05v-.87a.42.42,0,0,0-.12-.33.64.64,0,0,0-.38-.1.62.62,0,0,0-.4.11.42.42,0,0,0-.14.35v0h.28v0a.21.21,0,0,1,.24-.24.23.23,0,0,1,.16.05.2.2,0,0,1,.07.18.15.15,0,0,1-.1.16l-.19.06a1.14,1.14,0,0,0-.38.17.4.4,0,0,0-.13.33.49.49,0,0,0,.11.33.41.41,0,0,0,.31.12.51.51,0,0,0,.41-.2.2.2,0,0,0,.06.12.3.3,0,0,0,.18.06h0a.17.17,0,0,0,.16-.19v0h0C220.85,168.88,220.83,168.87,220.82,168.86Zm-.3-.3a.34.34,0,0,1-.09.24.26.26,0,0,1-.21.1.17.17,0,0,1-.14-.06h0a.16.16,0,0,1-.06-.13.28.28,0,0,1,.06-.21.61.61,0,0,1,.22-.09,1,1,0,0,0,.22-.09Z" transform="translate(-152.43 -144.21)"/><path class="cls-7" d="M222.6,167.06h-.68v2h.64a.81.81,0,0,0,.66-.24,1.35,1.35,0,0,0,.19-.83,1.12,1.12,0,0,0-.19-.73A.75.75,0,0,0,222.6,167.06Zm.34,1.63a.45.45,0,0,1-.4.17h-.31V167.3h.31a.45.45,0,0,1,.39.15,1.26,1.26,0,0,1,.13.7A.94.94,0,0,1,222.94,168.69Z" transform="translate(-152.43 -144.21)"/><path class="cls-7" d="M224.22,167.52a.5.5,0,0,0-.44.22.93.93,0,0,0-.14.55,1.12,1.12,0,0,0,.15.62.49.49,0,0,0,.43.23.6.6,0,0,0,.38-.12.53.53,0,0,0,.18-.45v0h-.3v0a.5.5,0,0,1-.06.26.21.21,0,0,1-.18.09.24.24,0,0,1-.22-.12.93.93,0,0,1-.07-.43h.83v0a1,1,0,0,0-.15-.67A.5.5,0,0,0,224.22,167.52Zm-.27.62a.51.51,0,0,1,.08-.3.24.24,0,0,1,.21-.1c.16,0,.24.13.24.41Z" transform="translate(-152.43 -144.21)"/><path class="cls-7" d="M225.87,167.58l-.32,1.08c-.05-.14-.32-1.1-.32-1.1h-.32l.48,1.55h.15a.23.23,0,0,0,.2-.16v0h0l.44-1.37h-.31Z" transform="translate(-152.43 -144.21)"/><path class="cls-7" d="M226.9,167.52a.52.52,0,0,0-.45.22,1.08,1.08,0,0,0-.13.56,1.17,1.17,0,0,0,.14.61.51.51,0,0,0,.43.24.58.58,0,0,0,.38-.12.55.55,0,0,0,.18-.45v0h-.29v0a.44.44,0,0,1-.07.25.21.21,0,0,1-.18.09.24.24,0,0,1-.21-.12.88.88,0,0,1-.08-.43h.83v0a1.14,1.14,0,0,0-.15-.68A.53.53,0,0,0,226.9,167.52Zm-.28.63a.6.6,0,0,1,.08-.3h0a.26.26,0,0,1,.22-.1c.16,0,.23.13.24.4Z" transform="translate(-152.43 -144.21)"/><path class="cls-7" d="M227.72,167.07v2h.15A.14.14,0,0,0,228,169v-1.9h-.3Z" transform="translate(-152.43 -144.21)"/><path class="cls-7" d="M228.91,167.53a.56.56,0,0,0-.47.19h0a1,1,0,0,0-.16.63,1,1,0,0,0,.15.6.57.57,0,0,0,.48.2.6.6,0,0,0,.49-.2,1,1,0,0,0,.15-.61C229.55,167.81,229.34,167.54,228.91,167.53Zm.23,1.28a.3.3,0,0,1-.49,0,1.42,1.42,0,0,1,0-.88.25.25,0,0,1,.23-.12.28.28,0,0,1,.27.13,1,1,0,0,1,.07.44A.93.93,0,0,1,229.14,168.81Z" transform="translate(-152.43 -144.21)"/><path class="cls-7" d="M230.46,167.54a.38.38,0,0,0-.35.15v-.12h-.29v2H230a.16.16,0,0,0,.14-.14V169a.48.48,0,0,0,.36.15c.36,0,.54-.27.54-.78a1.29,1.29,0,0,0-.1-.58A.49.49,0,0,0,230.46,167.54Zm.18,1.26a.25.25,0,0,1-.22.11.24.24,0,0,1-.22-.11h0a.87.87,0,0,1-.1-.49.79.79,0,0,1,.1-.44.23.23,0,0,1,.2-.09.22.22,0,0,1,.23.13,1.07,1.07,0,0,1,.07.47A1.1,1.1,0,0,1,230.64,168.8Z" transform="translate(-152.43 -144.21)"/><path class="cls-7" d="M232.83,167.54a.59.59,0,0,0-.31.08.55.55,0,0,0-.14.13.38.38,0,0,0-.38-.21.6.6,0,0,0-.27.06.4.4,0,0,0-.16.12v-.15h-.28v1.55h.16a.17.17,0,0,0,.13-.14V168a.23.23,0,0,1,.09-.18.41.41,0,0,1,.24-.08c.16,0,.23.09.23.28v1.06h.16a.16.16,0,0,0,.14-.15v-.91a.24.24,0,0,1,.09-.2.39.39,0,0,1,.25-.08.18.18,0,0,1,.16.06.37.37,0,0,1,.05.22v1.06h.18a.16.16,0,0,0,.13-.14v-1C233.29,167.68,233.13,167.55,232.83,167.54Z" transform="translate(-152.43 -144.21)"/><path class="cls-7" d="M234.12,167.54a.5.5,0,0,0-.44.22,1,1,0,0,0-.13.56,1,1,0,0,0,.14.61.5.5,0,0,0,.43.23.58.58,0,0,0,.38-.12.52.52,0,0,0,.18-.44v0h-.29v0a.58.58,0,0,1-.07.26.24.24,0,0,1-.39,0,.88.88,0,0,1-.08-.43h.83v0a1.1,1.1,0,0,0-.15-.67A.5.5,0,0,0,234.12,167.54Zm-.27.63a.57.57,0,0,1,.08-.3h0a.27.27,0,0,1,.22-.11c.15,0,.23.14.24.41Z" transform="translate(-152.43 -144.21)"/><path class="cls-7" d="M235.63,167.56a.45.45,0,0,0-.27.06.31.31,0,0,0-.12.11v-.15H235v1.54h.14a.15.15,0,0,0,.16-.14v-.89a.26.26,0,0,1,.09-.21.32.32,0,0,1,.24-.08c.15,0,.21.06.21.21v1.12h.15a.16.16,0,0,0,.15-.15V168a.5.5,0,0,0-.1-.36A.46.46,0,0,0,235.63,167.56Z" transform="translate(-152.43 -144.21)"/><path class="cls-7" d="M236.74,167.19h-.29v.39h-.24v.24h.24v1.08a.19.19,0,0,0,.1.18.73.73,0,0,0,.3.07h0A.15.15,0,0,0,237,169v-.09h0a.4.4,0,0,1-.21,0s0,0,0-.09v-1h.14a.15.15,0,0,0,.14-.15v-.09h-.28Z" transform="translate(-152.43 -144.21)"/><path class="cls-7" d="M214.38,170.23v2h.15a.16.16,0,0,0,.17-.15v-1.89h-.33Z" transform="translate(-152.43 -144.21)"/><path class="cls-7" d="M215.72,170.7a.45.45,0,0,0-.27.07.38.38,0,0,0-.12.1v-.14h-.28v1.54h.13a.16.16,0,0,0,.17-.15v-.88a.29.29,0,0,1,.09-.22.36.36,0,0,1,.24-.08c.14,0,.21.07.21.22v1.12H216a.16.16,0,0,0,.16-.15v-.95a.5.5,0,0,0-.1-.36A.46.46,0,0,0,215.72,170.7Z" transform="translate(-152.43 -144.21)"/><path class="cls-7" d="M217.15,171.39a1.42,1.42,0,0,1-.33-.14.15.15,0,0,1-.06-.13.17.17,0,0,1,.06-.14.32.32,0,0,1,.2-.06c.08,0,.15,0,.18.06a.3.3,0,0,1,.07.18v0h.28v0a.4.4,0,0,0-.19-.39.67.67,0,0,0-.35-.08.61.61,0,0,0-.39.12.42.42,0,0,0-.14.33c0,.18.12.32.37.42l.24.08a.55.55,0,0,1,.17.1.21.21,0,0,1,0,.12.19.19,0,0,1-.07.16.33.33,0,0,1-.21.06.27.27,0,0,1-.23-.1.3.3,0,0,1,0-.18v0h-.3v0a.47.47,0,0,0,.53.52.72.72,0,0,0,.49-.16.41.41,0,0,0,.12-.3.4.4,0,0,0-.13-.34A.7.7,0,0,0,217.15,171.39Z" transform="translate(-152.43 -144.21)"/><path class="cls-7" d="M218.2,170.34h-.29v.39h-.24V171h.24c0,.05,0,1.08,0,1.08a.2.2,0,0,0,.11.18.76.76,0,0,0,.32.07.16.16,0,0,0,.15-.15v-.08h0c-.13,0-.19,0-.21,0s0,0,0-.09v-1h.14a.16.16,0,0,0,.14-.15v-.08h-.28Z" transform="translate(-152.43 -144.21)"/><path class="cls-7" d="M218.63,170.74v1.54h.15a.15.15,0,0,0,.16-.14v-1.4h-.3Z" transform="translate(-152.43 -144.21)"/><path class="cls-7" d="M218.63,170.24v.33h.15a.15.15,0,0,0,.15-.16v-.17h-.3Z" transform="translate(-152.43 -144.21)"/><path class="cls-7" d="M219.58,170.34h-.29s0,.35,0,.4h-.23V171h.23v1.08a.21.21,0,0,0,.1.18.66.66,0,0,0,.32.07.14.14,0,0,0,.15-.14v-.09h0a.58.58,0,0,1-.21,0,.09.09,0,0,1-.05-.09s0-.94,0-1h.14a.16.16,0,0,0,.14-.14v-.09h-.28Z" transform="translate(-152.43 -144.21)"/><path class="cls-7" d="M220.82,170.74v1a.33.33,0,0,1-.1.24.32.32,0,0,1-.23.09.22.22,0,0,1-.14-.05.17.17,0,0,1,0-.12v-1.18H220v1.17a.37.37,0,0,0,.41.41.49.49,0,0,0,.43-.17v.14H221a.16.16,0,0,0,.16-.15v-1.4h-.31Z" transform="translate(-152.43 -144.21)"/><path class="cls-7" d="M221.79,170.35h-.29v.39h-.24V171h.24v1.08a.19.19,0,0,0,.1.18.75.75,0,0,0,.31.07.16.16,0,0,0,.16-.15v-.08h0a.51.51,0,0,1-.21,0s0,0,0-.09v-1h.14a.17.17,0,0,0,.14-.15v-.09h-.28Z" transform="translate(-152.43 -144.21)"/><path class="cls-7" d="M223.31,171.53a1.08,1.08,0,0,0-.15-.67.51.51,0,0,0-.41-.15.5.5,0,0,0-.45.22.93.93,0,0,0-.13.55,1.21,1.21,0,0,0,.14.62.5.5,0,0,0,.44.23.55.55,0,0,0,.37-.12.53.53,0,0,0,.19-.45v0H223v0a.5.5,0,0,1-.07.26.21.21,0,0,1-.18.09.24.24,0,0,1-.21-.12.91.91,0,0,1-.08-.43h.84Zm-.84-.2a.6.6,0,0,1,.08-.3.26.26,0,0,1,.22-.1c.16,0,.23.13.24.41Z" transform="translate(-152.43 -144.21)"/><polygon class="cls-8" points="44.82 29.65 42.46 29.64 42.46 27.28 43.05 27.28 43.05 29.06 44.82 29.06 44.82 29.65"/><polygon class="cls-9" points="56.38 21.16 58.75 21.17 58.74 23.53 58.15 23.53 58.16 21.76 56.38 21.75 56.38 21.16"/><path class="cls-7" d="M207.1,169.61a3,3,0,0,0-.37-1.52,2.08,2.08,0,0,0-1.16-.94,2.85,2.85,0,0,0-.91-.14h-2a.46.46,0,0,0-.49.46v4.77h2.73a1.93,1.93,0,0,0,1.65-.78A3,3,0,0,0,207.1,169.61Zm-1.6,0a1.76,1.76,0,0,1-.27,1.09,1.17,1.17,0,0,1-.93.34h-.58v-2.83h.51a1.18,1.18,0,0,1,1,.4A1.51,1.51,0,0,1,205.5,169.61Z" transform="translate(-152.43 -144.21)"/><path class="cls-7" d="M209.54,167v4.77a.46.46,0,0,1-.48.46h-1.11v-4.77a.45.45,0,0,1,.48-.46Z" transform="translate(-152.43 -144.21)"/><path class="cls-7" d="M201.67,172.24l-1.92-2.79,1.92-2.45h-1.8l-1.74,2.19V167H197a.46.46,0,0,0-.48.47v4.76h1.11a.46.46,0,0,0,.48-.47v-2l1.7,2.49Z" transform="translate(-152.43 -144.21)"/><path class="cls-10" d="M197.44,150.63a3.52,3.52,0,0,0-1.32.24,3,3,0,0,0-1,.69,3.25,3.25,0,0,0-.68,1.11,4.45,4.45,0,0,0-.24,1.52,4.71,4.71,0,0,0,.22,1.48,2.78,2.78,0,0,0,.64,1.07,2.59,2.59,0,0,0,1,.65,3.79,3.79,0,0,0,1.35.22,6.92,6.92,0,0,0,1.11-.09,5.67,5.67,0,0,0,1.06-.25v1.51a6.62,6.62,0,0,1-1.08.23,9.3,9.3,0,0,1-1.2.08,6.08,6.08,0,0,1-2.14-.34,4.37,4.37,0,0,1-1.55-1,4.21,4.21,0,0,1-.93-1.52,5.8,5.8,0,0,1-.31-2,6.09,6.09,0,0,1,.33-2,4.66,4.66,0,0,1,1-1.63,4.32,4.32,0,0,1,1.57-1.08,5.54,5.54,0,0,1,2.13-.4,8.31,8.31,0,0,1,1.15.08,6.28,6.28,0,0,1,1,.23V151a7.37,7.37,0,0,0-1.07-.25A8.05,8.05,0,0,0,197.44,150.63Z" transform="translate(-152.43 -144.21)"/><path class="cls-10" d="M204.71,157.72a5.46,5.46,0,0,0,1-.1,8,8,0,0,0,1.09-.28v1.35a4.53,4.53,0,0,1-1,.27,7.35,7.35,0,0,1-1.42.13,5,5,0,0,1-1.4-.19,3,3,0,0,1-1.15-.61,3,3,0,0,1-.79-1.1,4.17,4.17,0,0,1-.29-1.63,4.6,4.6,0,0,1,.27-1.65,3.38,3.38,0,0,1,.73-1.18,3.17,3.17,0,0,1,1.05-.7,3.57,3.57,0,0,1,2.44,0,2.37,2.37,0,0,1,1,.63,2.91,2.91,0,0,1,.63,1.11,5.05,5.05,0,0,1,.23,1.6c0,.24,0,.44,0,.61h-4.54a2,2,0,0,0,.21.82,1.68,1.68,0,0,0,.47.55,2,2,0,0,0,.68.31A3.58,3.58,0,0,0,204.71,157.72Zm-.68-4.6a1.32,1.32,0,0,0-.57.12,1.38,1.38,0,0,0-.43.32,1.47,1.47,0,0,0-.29.48,2.74,2.74,0,0,0-.15.58h2.73a1.81,1.81,0,0,0-.08-.58,1.54,1.54,0,0,0-.24-.48,1.18,1.18,0,0,0-1-.44Z" transform="translate(-152.43 -144.21)"/><path class="cls-10" d="M210.22,152.94h0a2.5,2.5,0,0,1,.38-.43,2.41,2.41,0,0,1,.52-.36,3.39,3.39,0,0,1,.65-.26,3.1,3.1,0,0,1,.76-.09,2.92,2.92,0,0,1,.73.08,2.23,2.23,0,0,1,.65.27,1.93,1.93,0,0,1,.52.47,2.51,2.51,0,0,1,.36.69,2.37,2.37,0,0,1,.09.49,5.21,5.21,0,0,1,0,.6v4.51h-1.7v-4.24c0-.19,0-.35,0-.48a1.51,1.51,0,0,0-.08-.35,1,1,0,0,0-.39-.48,1.39,1.39,0,0,0-.63-.14,2.11,2.11,0,0,0-1,.23,2.5,2.5,0,0,0-.81.68v4.78h-1.7V152h1.41Z" transform="translate(-152.43 -144.21)"/><path class="cls-10" d="M221,158.9a4.75,4.75,0,0,1-.68.14,6.73,6.73,0,0,1-.74.05,3.1,3.1,0,0,1-1.43-.29,1.6,1.6,0,0,1-.79-.81,2.65,2.65,0,0,1-.16-1v-3.6h-1.3V152h1.3V150h1.69V152h2v1.39h-2v3.38a1.16,1.16,0,0,0,.12.59.94.94,0,0,0,.85.33,2.78,2.78,0,0,0,.58,0l.55-.11Z" transform="translate(-152.43 -144.21)"/><path class="cls-10" d="M226.49,153.31h-.14a3.82,3.82,0,0,0-1.37.23,1.89,1.89,0,0,0-.91.72v4.65h-1.7V152h1.4l.16,1h0a2.14,2.14,0,0,1,.83-.83,2.4,2.4,0,0,1,1.26-.31,2.76,2.76,0,0,1,.44,0Z" transform="translate(-152.43 -144.21)"/><path class="cls-10" d="M231.58,158.17h0a3.6,3.6,0,0,1-.34.31,3.31,3.31,0,0,1-.46.29,2.43,2.43,0,0,1-.57.23,2.49,2.49,0,0,1-.68.08,2.83,2.83,0,0,1-.93-.15,2.07,2.07,0,0,1-.73-.44,2.1,2.1,0,0,1-.49-.71,2.25,2.25,0,0,1-.17-.92,2.32,2.32,0,0,1,.2-1,2.14,2.14,0,0,1,.57-.75,2.43,2.43,0,0,1,.87-.47,3.67,3.67,0,0,1,1.13-.16,7,7,0,0,1,.83.05c.25,0,.47.09.67.14v-.28a1.26,1.26,0,0,0-.08-.47,1,1,0,0,0-.26-.4,1.24,1.24,0,0,0-.48-.28,2.12,2.12,0,0,0-.72-.1,5.23,5.23,0,0,0-1,.11,7.74,7.74,0,0,0-1.11.35v-1.33a5.63,5.63,0,0,1,1.12-.35,6.92,6.92,0,0,1,1.23-.13,4.15,4.15,0,0,1,1.33.19,2.7,2.7,0,0,1,.95.51,2,2,0,0,1,.57.77,2.37,2.37,0,0,1,.19,1v2.61c0,.46,0,.85,0,1.18s0,.63,0,.88h-1.54Zm-.13-2.22c-.17,0-.35-.08-.56-.11a4.58,4.58,0,0,0-.64,0,1.77,1.77,0,0,0-1,.24.87.87,0,0,0-.36.76,1,1,0,0,0,.08.41.82.82,0,0,0,.23.29.9.9,0,0,0,.32.17,1.34,1.34,0,0,0,.4.06,1.51,1.51,0,0,0,.48-.07,1.84,1.84,0,0,0,.43-.17,2.24,2.24,0,0,0,.34-.23,3.45,3.45,0,0,0,.27-.25Z" transform="translate(-152.43 -144.21)"/><path class="cls-10" d="M235.12,158.9V148.53h1.7V158.9Z" transform="translate(-152.43 -144.21)"/><path class="cls-10" d="M243.75,149.32v8.11h4.48v1.47H242v-9.58Z" transform="translate(-152.43 -144.21)"/><path class="cls-10" d="M249.66,148.53h1.79v1.84h-1.79Zm.05,3.43h1.69v6.94h-1.7Z" transform="translate(-152.43 -144.21)"/><path class="cls-10" d="M260,155.31a4.74,4.74,0,0,1-.27,1.66,3.55,3.55,0,0,1-.71,1.19,2.9,2.9,0,0,1-1,.69,2.87,2.87,0,0,1-1.11.23,2.52,2.52,0,0,1-.7-.1,2.2,2.2,0,0,1-.56-.24,2.1,2.1,0,0,1-.39-.3,3,3,0,0,1-.26-.28h0l-.16.74h-1.41c0-.21,0-.46,0-.76s0-.6,0-.87v-8.75h1.69v2.89c0,.21,0,.4,0,.57s0,.31,0,.41h0l.35-.23a3.46,3.46,0,0,1,.43-.19,3.15,3.15,0,0,1,.49-.14,3.33,3.33,0,0,1,.56-.05,3.14,3.14,0,0,1,1.13.21,2.86,2.86,0,0,1,1,.65,3.07,3.07,0,0,1,.68,1.11A4.4,4.4,0,0,1,260,155.31Zm-1.75.08a3.73,3.73,0,0,0-.16-1.12,1.77,1.77,0,0,0-.41-.71,1.36,1.36,0,0,0-.53-.34,2.15,2.15,0,0,0-.55-.08,2.1,2.1,0,0,0-.76.15,2.55,2.55,0,0,0-.7.4V157a1.81,1.81,0,0,0,.24.24,1.94,1.94,0,0,0,.33.23,2,2,0,0,0,.4.17,1.39,1.39,0,0,0,.46.07,1.43,1.43,0,0,0,.73-.17,1.55,1.55,0,0,0,.52-.47,2.27,2.27,0,0,0,.32-.74A3.93,3.93,0,0,0,258.23,155.39Z" transform="translate(-152.43 -144.21)"/><path class="cls-10" d="M265.61,153.3h-.14a3.82,3.82,0,0,0-1.37.23,2,2,0,0,0-.92.72v4.65h-1.7v-7h1.41l.16,1h0a2.18,2.18,0,0,1,.82-.83,2.44,2.44,0,0,1,1.27-.31,2.76,2.76,0,0,1,.44,0Z" transform="translate(-152.43 -144.21)"/><path class="cls-10" d="M270.7,158.16h0a2.59,2.59,0,0,1-.34.3,3,3,0,0,1-.46.3,2.45,2.45,0,0,1-1.25.31,2.83,2.83,0,0,1-.93-.15,2.11,2.11,0,0,1-.74-.44,2.22,2.22,0,0,1-.48-.71,2.25,2.25,0,0,1-.18-.92,2.33,2.33,0,0,1,.21-1,1.92,1.92,0,0,1,.57-.75,2.43,2.43,0,0,1,.87-.47,3.63,3.63,0,0,1,1.13-.16,7.12,7.12,0,0,1,.83.05c.25,0,.47.09.66.14v-.28a1.26,1.26,0,0,0-.08-.47,1,1,0,0,0-.26-.4,1.32,1.32,0,0,0-.48-.28,2.2,2.2,0,0,0-.72-.1,5.15,5.15,0,0,0-1,.11,7.84,7.84,0,0,0-1.12.35v-1.33a5.75,5.75,0,0,1,1.11-.35,7.14,7.14,0,0,1,1.24-.13,4,4,0,0,1,1.32.19,2.75,2.75,0,0,1,1,.51,2.15,2.15,0,0,1,.57.77,2.37,2.37,0,0,1,.19,1v2.61c0,.46,0,.85,0,1.18s0,.63,0,.88h-1.54Zm-.14-2.22a5.56,5.56,0,0,0-.56-.11,4.44,4.44,0,0,0-.63,0,1.77,1.77,0,0,0-1,.24.87.87,0,0,0-.36.76,1,1,0,0,0,.08.41.82.82,0,0,0,.23.29.9.9,0,0,0,.32.17,1.34,1.34,0,0,0,.4.06,1.51,1.51,0,0,0,.48-.07,1.84,1.84,0,0,0,.43-.17,2.88,2.88,0,0,0,.34-.23,2.11,2.11,0,0,0,.26-.25Z" transform="translate(-152.43 -144.21)"/><path class="cls-10" d="M278.29,153.3h-.14a3.82,3.82,0,0,0-1.37.23,2,2,0,0,0-.92.71v4.65h-1.7V152h1.4l.16,1h0a2.21,2.21,0,0,1,.82-.84,2.56,2.56,0,0,1,1.27-.3,2.76,2.76,0,0,1,.44,0Z" transform="translate(-152.43 -144.21)"/><path class="cls-10" d="M278.44,152h1.82l1,2.51c.4,1,.67,1.67.84,2.12h0c.11-.35.37-1,.75-2L284,152h1.84l-4.47,10.27h-1.67l1.58-3.72Z" transform="translate(-152.43 -144.21)"/></svg>